<svg width="32" height="22" viewBox="0 0 32 22" fill="none" xmlns="http://www.w3.org/2000/svg">
<rect width="32" height="22" rx="1" fill="url(#paint0_linear_3370_34788)"/>
<path fill-rule="evenodd" clip-rule="evenodd" d="M13.9875 4.781C13.238 4.31802 12.7309 4.11953 11.1216 4.0093C9.68853 3.95539 8.94592 4.13545 8.03495 4.56053C6.38153 5.33217 5.58777 6.52268 5.30117 7.11795C4.92637 7.86752 4.75 8.57302 4.75 9.41079C4.75 10.2486 4.92637 10.9541 5.30117 11.7036C5.58777 12.2989 6.18304 13.0705 6.60192 13.4233C7.02081 13.776 7.81448 14.1949 8.36565 14.3933C8.91681 14.5917 10.3057 15.1649 11.4522 15.6941C12.5986 16.2232 14.3844 16.9066 15.4206 17.2374C16.4568 17.568 17.8457 17.8766 18.5071 17.9648C19.4992 18.053 19.874 17.9869 20.4913 17.6342C20.9102 17.3697 21.4613 16.9507 21.7039 16.7082C21.9464 16.4436 22.0566 16.1791 21.9684 16.0689C21.8802 15.9807 21.4834 16.0248 21.0866 16.157C20.6457 16.3113 19.8519 16.3335 18.948 16.2232C18.1543 16.135 16.4788 15.8043 15.2001 15.4736C13.9214 15.1649 12.797 14.8122 12.6647 14.702C12.5325 14.5917 12.7088 14.4374 13.1057 14.3272C13.4805 14.2169 14.208 13.7319 14.7371 13.2469C15.2662 12.7839 15.9056 11.9461 16.1481 11.395C16.4127 10.7997 16.589 9.91786 16.589 9.19032C16.589 8.39664 16.4347 7.66911 16.1261 7.0959C15.8836 6.61087 15.4867 6.01562 15.2662 5.7731C15.0458 5.53059 14.4726 5.08965 13.9875 4.781ZM10.5704 14.2609C12.6403 14.2609 14.3183 12.1388 14.3183 9.52092C14.3183 6.90307 12.6403 4.78089 10.5704 4.78089C8.50048 4.78089 6.82247 6.90307 6.82247 9.52092C6.82247 12.1388 8.50048 14.2609 10.5704 14.2609Z" fill="white"/>
<path fill-rule="evenodd" clip-rule="evenodd" d="M20.5499 6.30851L19.3699 5.00852C17.9487 5.00852 17.1796 5.00296 16.8835 5.00083L16.883 5.00082C16.8127 5.00031 16.7692 5 16.75 5C16.75 5.1 17.73 6.26852 19.23 7.70852C20.67 9.08852 21.85 10.2685 21.83 10.3485C21.83 10.4485 20.93 11.2885 19.83 12.2485C19.0255 12.9653 18.4989 13.4636 18.1882 13.7578C18.0741 13.8658 17.9891 13.9463 17.93 14H19.2499H20.75L22.97 11.6085C23.5449 12.211 23.9894 12.6799 24.3335 13.0428C24.7967 13.5313 25.0778 13.8279 25.25 14H26.35H27.25C27.2146 13.9646 26.9615 13.6665 26.6244 13.2694C26.0084 12.5438 25.1119 11.4878 24.75 11.1C24.6357 10.9531 24.5318 10.8343 24.4451 10.7352C24.2132 10.47 24.1044 10.3456 24.25 10.2C24.2967 10.1533 24.4743 9.93394 24.7155 9.63595C24.9908 9.29594 25.3489 8.85355 25.69 8.44851C26.31 7.70852 26.81 7.08852 26.79 7.08852C26.75 7.06851 26.29 7.04851 25.75 7.02851C24.81 7.00852 24.73 7.04851 23.95 7.94852C23.49 8.48851 23.07 8.90852 22.99 8.90852C22.89 8.90852 22.59 8.60852 22.29 8.26851C22.2028 8.17038 22.0828 8.03351 21.941 7.87186L21.9266 7.8554C21.5496 7.42516 21.0239 6.82558 20.5499 6.30851Z" fill="white"/>
<defs>
<linearGradient id="paint0_linear_3370_34788" x1="2.5" y1="2" x2="23" y2="19" gradientUnits="userSpaceOnUse">
<stop stop-color="#6978FF"/>
<stop offset="1" stop-color="#305EFF"/>
</linearGradient>
</defs>
</svg>
